<mxfile host="Electron" modified="2023-04-27T14:15:35.021Z" agent="Mozilla/5.0 (Windows NT 10.0; Win64; x64) AppleWebKit/537.36 (KHTML, like Gecko) draw.io/21.1.2 Chrome/106.0.5249.199 Electron/21.4.3 Safari/537.36" etag="0Wh_832tgU6-lM1ibhiB" version="21.1.2" type="device">
  <diagram name="PÃ¡gina-1" id="Hc4uAjDOSzZKf6fAHVU8">
    <mxGraphModel dx="1036" dy="614" grid="1" gridSize="10" guides="1" tooltips="1" connect="1" arrows="1" fold="1" page="1" pageScale="1" pageWidth="827" pageHeight="1169" math="0" shadow="0">
      <root>
        <mxCell id="0" />
        <mxCell id="1" parent="0" />
        <mxCell id="Zw7e7EIyPkA-x-o7fJzw-4" style="edgeStyle=orthogonalEdgeStyle;rounded=0;orthogonalLoop=1;jettySize=auto;html=1;entryX=0;entryY=0.5;entryDx=0;entryDy=0;" edge="1" parent="1" source="Zw7e7EIyPkA-x-o7fJzw-1" target="Zw7e7EIyPkA-x-o7fJzw-2">
          <mxGeometry relative="1" as="geometry" />
        </mxCell>
        <mxCell id="Zw7e7EIyPkA-x-o7fJzw-5" style="edgeStyle=orthogonalEdgeStyle;rounded=0;orthogonalLoop=1;jettySize=auto;html=1;entryX=0;entryY=0.5;entryDx=0;entryDy=0;" edge="1" parent="1" source="Zw7e7EIyPkA-x-o7fJzw-1" target="Zw7e7EIyPkA-x-o7fJzw-3">
          <mxGeometry relative="1" as="geometry" />
        </mxCell>
        <mxCell id="Zw7e7EIyPkA-x-o7fJzw-1" value="Usuario" style="shape=umlActor;verticalLabelPosition=bottom;verticalAlign=top;html=1;outlineConnect=0;" vertex="1" parent="1">
          <mxGeometry x="80" y="170" width="30" height="60" as="geometry" />
        </mxCell>
        <mxCell id="Zw7e7EIyPkA-x-o7fJzw-2" value="Entrar al encuentro" style="ellipse;whiteSpace=wrap;html=1;" vertex="1" parent="1">
          <mxGeometry x="210" y="70" width="120" height="80" as="geometry" />
        </mxCell>
        <mxCell id="Zw7e7EIyPkA-x-o7fJzw-3" value="Salir del encuentro" style="ellipse;whiteSpace=wrap;html=1;" vertex="1" parent="1">
          <mxGeometry x="210" y="270" width="120" height="80" as="geometry" />
        </mxCell>
      </root>
    </mxGraphModel>
  </diagram>
</mxfile>
